<?xml version="1.0" standalone="no"?><!DOCTYPE svg PUBLIC "-//W3C//DTD SVG 1.1//EN" "http://www.w3.org/Graphics/SVG/1.1/DTD/svg11.dtd"><svg t="1573912462640" class="icon" viewBox="0 0 1024 1024" version="1.1" xmlns="http://www.w3.org/2000/svg" p-id="1094" xmlns:xlink="http://www.w3.org/1999/xlink" width="200" height="200"><defs><style type="text/css"></style></defs><path d="M358.191515 472.401532H114.41843A114.557372 114.557372 0 0 1 0 358.191515V114.41843A114.557372 114.557372 0 0 1 114.41843 0h243.773085A114.557372 114.557372 0 0 1 472.401532 114.41843v243.773085A114.557372 114.557372 0 0 1 358.191515 472.401532zM114.41843 76.417895A38.139477 38.139477 0 0 0 76.417895 114.41843v243.773085a38.139477 38.139477 0 0 0 38.139477 38.139476h243.634143a38.139477 38.139477 0 0 0 38.139476-38.139476V114.41843A38.139477 38.139477 0 0 0 358.191515 76.417895zM909.581362 472.401532H665.808277a114.557372 114.557372 0 0 1-114.41843-114.210017V114.41843A114.557372 114.557372 0 0 1 665.808277 0h243.773085a114.557372 114.557372 0 0 1 114.41843 114.41843v243.773085A114.557372 114.557372 0 0 1 909.581362 472.401532zM665.808277 76.417895a38.139477 38.139477 0 0 0-38.139477 38.139477v243.634143a38.139477 38.139477 0 0 0 38.139477 38.139476h243.773085a38.139477 38.139477 0 0 0 38.139476-38.139476V114.41843a38.139477 38.139477 0 0 0-38.139476-38.000535zM358.191515 1023.999792H114.41843A114.557372 114.557372 0 0 1 0 909.581362V665.808277a114.557372 114.557372 0 0 1 114.41843-114.41843h243.773085A114.557372 114.557372 0 0 1 472.401532 665.808277v243.773085a114.557372 114.557372 0 0 1-114.210017 114.41843zM114.41843 627.6688A38.139477 38.139477 0 0 0 76.417895 665.808277v243.773085a38.139477 38.139477 0 0 0 38.139477 38.139476h243.634143a38.139477 38.139477 0 0 0 38.139476-38.139476V665.808277a38.139477 38.139477 0 0 0-38.139476-38.139477zM787.729555 1023.999792a236.200766 236.200766 0 0 1-69.470814-10.351152 35.430115 35.430115 0 0 1 20.841244-67.734043 165.271065 165.271065 0 1 0-109.416531-108.999706 35.430115 35.430115 0 0 1-67.664572 20.841244 236.200766 236.200766 0 1 1 225.710673 166.035244z" fill="#d81e06" p-id="1095"></path></svg>